<svg width="2742" height="1283" viewBox="0 0 2742 1283" fill="none" xmlns="http://www.w3.org/2000/svg">
<rect width="2742" height="1283" fill="white"/>
<path d="M1601.07 691.903C1605.83 689.87 1622.18 681.675 1633.9 674.127C1642.45 668.615 1653.07 665.245 1661.27 658.724C1672 650.2 1681.12 646.062 1691.06 642.283C1700.09 638.846 1707.82 633.739 1717.75 629.96C1728.2 625.984 1738.63 619.362 1747.2 615.922C1757.14 612.502 1765.33 605.684 1771.17 597.458C1772.21 595.394 1772.89 593.361 1773.59 591.266" stroke="#CAC8EA" stroke-width="3" stroke-linecap="round"/>
<path d="M1755.1 539.922C1759.19 543.331 1766.03 550.15 1777.31 561.107C1783.12 563.87 1796.08 564.568 1811.48 566.94C1816.72 569.312 1816.72 574.057 1816.72 578.945" stroke="#CAC8EA" stroke-width="3" stroke-linecap="round"/>
<path d="M1607.23 505.008C1605.87 505.008 1603.14 506.363 1599.72 509.434C1592.66 515.777 1592.85 546.536 1599.32 566.243C1603.15 577.915 1617.46 577.549 1629.09 580.989C1639.48 584.061 1651.67 589.872 1660.6 591.946C1670.51 594.251 1681.12 596.732 1726.51 596.075C1743.5 595.829 1748.92 584.429 1753.02 583.741C1761.8 582.268 1770.79 595.335 1781.76 602.195C1793.39 609.468 1802.3 613.163 1810.53 615.566C1814.62 615.915 1818.75 617.27 1822.85 619.663C1824.91 620.7 1826.95 621.378 1829.04 622.076" stroke="#CAC8EA" stroke-width="3" stroke-linecap="round"/>
<path d="M1792.07 544.032C1792.05 541.321 1801.6 534.461 1814.26 528.998C1833.74 520.596 1846.09 515.319 1857.41 511.181C1866.34 507.919 1874.18 500.244 1883.78 496.126C1892.68 492.302 1896.8 485.847 1900.56 483.803C1902.28 482.437 1903.64 480.404 1904.33 474.951C1905.03 469.498 1905.03 460.687 1902.98 451.609" stroke="#CAC8EA" stroke-width="3" stroke-linecap="round"/>
<path d="M1900.93 445.444C1904.99 439.303 1922.74 428.397 1939.89 418.436C1956.21 408.954 1968.66 405.066 1975.52 397.559C1985.35 386.798 1991.95 379.763 2005.24 374.258C2040.41 359.692 2055.58 380.379 2064.18 384.497C2065.74 385.24 2065.23 387.896 2066.25 389.282C2071.17 395.997 2085.03 390.689 2097.7 388.286C2109.22 386.102 2118.59 378.366 2142.16 378.007C2153.93 377.827 2160.37 387.896 2166.53 396.46C2174.31 407.284 2182.96 412.542 2190.82 418.724C2199.57 425.598 2206.91 430.369 2215.13 433.111C2223.97 436.057 2231.57 438.584 2234.65 443.688C2239.77 452.167 2234.34 461.854 2231.27 465.274C2224.72 472.571 2215.18 475.553 2212.44 478.624C2211.2 480.008 2212.41 482.372 2213.78 484.436C2220.21 494.157 2234.96 497.447 2243.88 504.297C2251.67 510.269 2263.71 516.589 2276.05 523.469C2285.7 528.856 2296.58 535.772 2305.5 540.249C2317.11 546.073 2332.19 552.901 2340.41 558.046C2348.41 563.043 2358.89 565.224 2367.11 569.003C2375.62 572.908 2383.54 577.547 2391.76 580.987C2399.58 584.259 2408.18 584.406 2441.98 584.427C2456.26 584.436 2464.99 574.178 2479.03 569.034C2488.43 565.589 2500.56 559.802 2516 552.952C2525.04 548.94 2533.46 545.425 2544.76 534.488C2552.43 527.065 2551.99 505.17 2548.24 490.659C2547.66 488.423 2546.53 486.562 2543.81 485.514C2536.34 484.467 2528.74 483.789 2522.6 482.762C2519.17 482.413 2515.1 482.413 2510.91 482.413" stroke="#CAC8EA" stroke-width="3" stroke-linecap="round"/>
<path d="M2231.59 583.052C2243.2 575.535 2258.21 567.361 2270.57 560.481C2280.81 554.782 2291.11 553.641 2299.34 549.862C2301.4 548.836 2303.43 547.48 2305.16 545.765C2306.89 544.05 2308.24 542.017 2309.64 539.922" stroke="#CAC8EA" stroke-width="3" stroke-linecap="round"/>
<path d="M1736.62 769.947C1742.76 773.356 1750.95 777.464 1759.18 782.249C1767.42 787.04 1775.6 792.498 1784.5 796.636C1795.36 801.683 1805.71 800.754 1814.63 802.798C1816.75 803.283 1818.73 804.163 1820.46 803.496C1828.07 800.549 1826.29 788.472 1828.69 779.908C1831.42 770.197 1833.15 761.772 1840.65 751.503C1847.72 741.808 1855 733.019 1863.93 728.541C1872.29 724.346 1880.35 721.353 1888.91 715.202C1898.5 708.313 1912.51 707.674 1921.77 705.6C1924.18 704.922 1926.89 703.567 1929.3 702.191C1931.71 700.815 1933.75 699.459 1935.84 698.062" stroke="#CAC8EA" stroke-width="3" stroke-linecap="round"/>
<path d="M1785.91 905.503C1790 903.47 1799.55 895.275 1808.47 892.503C1819.03 889.224 1833.77 884.308 1851.56 873.71C1867.34 864.316 1876.94 860.36 1885.48 857.249C1899.45 852.161 1907.05 845.285 1915.27 840.828C1925.29 835.399 1931.69 828.854 1941.62 822.005C1949.71 816.426 1958.39 810.37 1964.57 802.843C1965.95 800.778 1967.31 798.745 1969.02 796.003C1970.74 793.261 1972.77 789.873 1974.86 782.273" stroke="#CAC8EA" stroke-width="3" stroke-linecap="round"/>
<path d="M2157.65 802.812C2157.65 808.933 2160.37 823.967 2162.1 833.589C2163.62 842.02 2165.87 850.01 2168.25 860.956C2171.37 875.27 2178.85 884.226 2185.7 891.446C2191.65 897.721 2200.05 904.107 2208.97 909.252C2216.58 913.641 2226.75 915.075 2234.3 921.565C2242.82 928.878 2254.8 932.861 2268.17 939.711C2278.01 944.751 2284.95 949.99 2293.18 952.732C2302.47 955.831 2313.01 962.313 2323.63 967.098C2332.21 971.904 2338.37 973.958 2342.81 975.663C2345.21 976.69 2347.92 978.045 2352.77 979.442" stroke="#CAC8EA" stroke-width="3" stroke-linecap="round"/>
<path d="M1424.44 718.602C1421.03 720.635 1412.85 726.119 1402.56 731.243C1400.15 732.443 1399.13 734.991 1399.11 737.055C1399.09 739.119 1400.45 741.153 1402.16 742.878C1411.53 752.304 1430.56 751.463 1439.12 754.184C1450.63 757.84 1457.26 766.497 1467.19 775.39C1475.48 782.814 1487.37 787.035 1496.29 790.814C1505.75 794.822 1514.76 798.701 1522.99 800.745C1527.18 801.786 1533.25 802.809 1540.77 801.792C1553.42 800.081 1559.95 791.184 1568.51 787.425C1581.01 781.943 1590.06 772.042 1599.32 766.538C1607.62 761.605 1615.4 758.323 1621.25 751.494C1627.24 744.485 1624.34 735.053 1624.35 730.955C1623.68 728.891 1621.65 726.858 1618.9 725.133C1616.16 723.408 1612.77 722.052 1607.23 718.602" stroke="#CAC8EA" stroke-width="3" stroke-linecap="round"/>
<path d="M1479.89 780.219C1478.53 791.802 1475.1 805.522 1474.08 831.318C1473.16 854.388 1473.73 897.78 1474.41 921.481C1475.08 945.182 1476.44 947.894 1479.17 950.307C1490.44 960.258 1499.69 965.721 1510.32 969.161C1518.89 972.581 1525.73 976.01 1530.86 977.037C1533.27 977.387 1535.3 977.387 1537.4 977.387" stroke="#CAC8EA" stroke-width="3" stroke-linecap="round"/>
<path d="M1486.05 1030.79C1483.32 1032.82 1481.94 1041.02 1483.64 1048.2C1486.99 1062.41 1509.92 1067.02 1524.68 1073.22C1536.37 1078.13 1548.98 1086.9 1559.61 1090.68C1568.72 1093.92 1576.38 1099.22 1584.61 1103C1593.11 1106.91 1601.03 1111.55 1611.29 1118.73C1620.72 1125.33 1631.13 1127.98 1640.4 1133.12C1649.5 1138.18 1658.53 1138.94 1687.21 1138.96C1701.59 1138.97 1718.71 1129.41 1730.43 1123.57C1739.08 1119.26 1748.9 1114.34 1769.06 1102.04C1775.66 1098.01 1780.41 1093.8 1784.85 1088C1787.01 1085.18 1787.27 1081.52 1786.94 1078.76C1786.61 1075.99 1785.25 1073.96 1784.22 1071.9C1783.18 1069.83 1782.5 1067.8 1777.7 1063.65" stroke="#CAC8EA" stroke-width="3" stroke-linecap="round"/>
<path d="M1851.63 942.469C1863.88 950.643 1887.17 962.966 1896.79 967.104C1905.35 970.785 1915.26 972.578 1921.78 978.729C1928.25 984.828 1948.7 1000.51 1962.51 1010.57C1971.1 1016.84 1982.34 1025.94 1987.87 1036.9C1987.89 1039.66 1986.53 1042.37 1984.48 1044.44C1982.42 1046.52 1979.71 1047.87 1974.86 1049.27" stroke="#CAC8EA" stroke-width="3" stroke-linecap="round"/>
<path d="M1753.05 1119.1C1753.05 1118.43 1753.05 1117.75 1754.07 1117.4C1761.56 1114.83 1771.49 1123.87 1779.72 1127.65C1788.53 1131.69 1797.5 1135.53 1809.47 1137.24C1832.91 1140.58 1841.32 1129.41 1850.92 1124.6C1859.58 1120.25 1868.68 1109.57 1878.3 1104.4C1887.36 1099.53 1898.13 1095.16 1908.76 1090.71C1917.4 1087.09 1926.89 1081.48 1937.52 1075.99C1946.56 1071.33 1957 1065.05 1966.28 1059.22C1972.11 1050.67 1974.86 1043.13 1975.2 1039.03C1975.54 1036.97 1976.22 1034.94 1978.97 1028.73" stroke="#CAC8EA" stroke-width="3" stroke-linecap="round"/>
<path d="M1849.58 958.898C1850.94 962.986 1857.75 968.469 1863.94 975.298C1870.57 982.627 1877.59 991.719 1886.18 996.535C1893.61 1000.7 1900.88 1004.74 1908.77 1007.15C1917.12 1009.71 1922.12 1015.71 1926.57 1018.78C1930.24 1021.31 1929.68 1029.37 1928.66 1037.23C1921.48 1044.46 1915.32 1048.57 1910.89 1050.62C1908.48 1051.32 1905.77 1051.32 1902.98 1051.32" stroke="#CAC8EA" stroke-width="3" stroke-linecap="round"/>
<path d="M1787.96 981.497C1790.68 981.497 1794.78 981.497 1799.91 980.819C1808.88 979.632 1813.93 969.872 1822.85 968.835C1831.07 967.12 1839.27 965.764 1857.72 966.76C1861.88 968.455 1863.92 971.844 1866.01 975.335" stroke="#CAC8EA" stroke-width="3" stroke-linecap="round"/>
<path d="M1790.02 965.066C1794.78 961.657 1804.36 957.549 1812.58 953.103C1822.2 947.905 1841.94 941.16 1855.36 935.984C1864.38 932.507 1872.13 927.44 1880.7 923.661C1890.7 919.246 1899.49 911.009 1909.11 906.891C1919.44 902.472 1927.59 894.579 1936.15 891.138C1945.9 887.22 1955.64 880.9 1967.97 873.013C1976.96 867.27 1985.09 863.073 1992.98 859.653C2001.65 855.894 2006.33 845.985 2013.52 839.125C2021.5 831.505 2025.51 823.393 2028.25 814.489C2031 802.834 2033.73 796.673 2035.78 792.575C2036.48 790.511 2036.48 788.478 2036.48 786.383" stroke="#CAC8EA" stroke-width="3" stroke-linecap="round"/>
<path d="M2081.66 772C2081.66 793.072 2080.31 827.412 2077.23 835.638C2073.94 844.399 2068.68 853.414 2061.49 860.633C2053.97 868.189 2043.38 878.06 2036.84 890.393C2034.45 894.893 2033.75 899.317 2032.72 903.414C2032.21 905.445 2032.37 907.512 2034.4 909.576C2044.95 920.285 2058.33 919.876 2068.96 921.919C2078.02 923.662 2087.08 930.802 2098.39 935.259C2111.42 940.394 2118.59 945.179 2126.14 947.592C2136.94 951.047 2149.4 960.952 2157.96 966.744C2167.34 973.087 2175.4 981.45 2189.44 994.45C2197.47 1001.89 2202.8 1007.49 2210.68 1010.91C2212.7 1011.79 2213.76 1014.31 2214.46 1016.38C2215.8 1020.31 2213.81 1024.6 2211.07 1028.7C2204.1 1039.16 2188.5 1044.46 2178.91 1047.88C2168.84 1051.47 2159.75 1058.84 2151.52 1064.99C2143.42 1071.05 2130.34 1079.34 2119.01 1086.22C2110.61 1091.32 2096.82 1099.18 2085.8 1104.71C2078.05 1108.6 2069.38 1110.18 2061.49 1115.31C2053.28 1120.65 2050.88 1128.67 2048.13 1132.08C2041.36 1140.5 2058.37 1151.92 2066.91 1158.1C2075.02 1163.98 2081.62 1169.74 2091.89 1173.5C2104.07 1177.96 2113.09 1185.48 2122.71 1190.96C2131.79 1196.14 2139.15 1200.55 2143.59 1202.27C2153.73 1206.19 2163.77 1194.43 2174.04 1185.54C2182.87 1177.9 2193.88 1175.95 2203.15 1168.76C2212.25 1161.69 2223.34 1160.22 2237.01 1152.67C2248.06 1146.57 2259.61 1141.03 2270.22 1136.58C2288.17 1129.04 2298.63 1121.19 2307.55 1115.01C2309.62 1113.63 2311.65 1112.28 2313.38 1110.56C2315.1 1108.85 2316.46 1106.82 2321.96 1100.61" stroke="#CAC8EA" stroke-width="3" stroke-linecap="round"/>
<path d="M2280.88 1043.11C2280.88 1044.47 2280.88 1053.3 2282.24 1066.98C2283.83 1082.99 2304.79 1084.85 2313.72 1089.99C2323.18 1095.45 2336.3 1097.87 2344.52 1102.31C2352.25 1106.49 2363.65 1108.14 2374.98 1114.29C2383.1 1118.7 2393.11 1121.81 2402.37 1126.96C2415.38 1134.19 2434.88 1126.66 2443.11 1122.54C2453.15 1117.51 2464.29 1111.59 2473.91 1108.51C2484.27 1105.19 2494.44 1097.91 2504.71 1090.72C2515.45 1083.2 2527.96 1075.32 2535.88 1068.47C2542.6 1062.65 2551.95 1058.88 2561.88 1051.7C2570.17 1045.69 2576.6 1041.06 2582.78 1034.93C2585.51 1030.83 2587.58 1026.7 2588.61 1021.59C2588.96 1018.51 2588.96 1014.44 2586.91 1010.25" stroke="#CAC8EA" stroke-width="3" stroke-linecap="round"/>
<path d="M2531.45 960.957C2545.81 950.01 2555.36 944.568 2564.28 940.09C2573.79 935.322 2585.47 927.439 2598.5 918.884C2606.84 913.408 2614.26 907.599 2622.13 903.121C2631.85 897.587 2640.26 891.168 2647.12 883.62C2648.79 881.786 2651.89 881.556 2652.61 879.174C2656.4 866.615 2642.4 856.951 2633.5 850.071C2623.3 842.194 2613.65 841.835 2605.42 839.452C2595.21 836.494 2584.24 826.801 2576.32 819.951C2569.14 813.74 2558.19 813.081 2551.67 807.628C2544.85 801.927 2532.89 800.758 2523.27 794.966C2514.95 789.96 2505.49 785.724 2494.52 776.831C2484.92 769.042 2474.68 763.132 2467.47 756.283C2461.19 750.329 2453.45 743.292 2445.22 737.449C2437.85 732.209 2426.09 729.572 2416.47 728.196C2405.76 726.665 2393.89 726.122 2386 729.542C2375.99 733.881 2371.95 747.318 2365.12 753.161C2358.25 759.043 2324.3 759.682 2303.51 755.594C2301.44 754.218 2299.41 752.863 2297.35 751.148C2295.28 749.433 2293.25 747.4 2291.15 745.305" stroke="#CAC8EA" stroke-width="3" stroke-linecap="round"/>
<path d="M2200.79 808.969C2200.79 823.222 2201.46 850.025 2203.51 853.783C2208.06 862.149 2217.87 866.435 2225.4 870.235C2229.07 872.088 2232.95 874.65 2241.48 880.493C2249.21 885.785 2256.9 891.081 2265.78 896.236C2280.5 904.78 2289.06 909.565 2298.99 912.338C2310.2 915.468 2323.28 922.587 2337.31 928.07C2346.77 931.764 2356.14 936.265 2366.77 944.152C2371.21 947.233 2375.34 950.663 2379.44 954.082C2381.5 955.469 2383.54 956.146 2385.63 956.845" stroke="#CAC8EA" stroke-width="3" stroke-linecap="round"/>
<path d="M2112.47 784.328C2111.12 788.395 2110.42 818.956 2111.43 863.442C2112.02 888.912 2127.5 897.248 2136.74 906.839C2143.99 914.376 2150.1 921.894 2157.29 928.415C2164.47 934.936 2170.64 942.432 2179.52 948.953C2192.77 958.678 2205.51 959.561 2220.58 965.045C2231.33 968.954 2235.66 976.69 2245.59 981.814C2255.16 986.754 2262.36 991.067 2270.58 994.148C2278.81 998.604 2287.01 1001.34 2296.94 1004.08C2299.35 1004.77 2301.38 1005.44 2303.48 1006.14" stroke="#CAC8EA" stroke-width="3" stroke-linecap="round"/>
<path d="M1724.3 866.48C1730.44 862.393 1742.7 854.199 1753.36 849.721C1763.98 845.262 1774.9 842.533 1783.83 841.157C1792.91 839.755 1801.6 834.317 1810.53 829.532C1818.92 825.03 1824.91 821.994 1827.99 818.246C1829.04 815.853 1829.04 812.465 1829.38 809.363C1829.72 806.262 1830.4 803.551 1831.1 800.758" stroke="#CAC8EA" stroke-width="3" stroke-linecap="round"/>
<path d="M1944.06 720.656C1944.06 728.153 1942.7 739.1 1939.96 749.03C1937.61 757.531 1935.18 765.799 1932.77 773.347C1930.47 780.532 1922.86 786.338 1913.63 793.886C1906.48 799.734 1896.86 800.057 1886.93 803.477C1876.75 806.981 1868.1 811.682 1857.84 815.8C1845.83 820.613 1835.94 826.757 1825.31 832.908C1816.96 837.745 1806.49 838.382 1799.97 845.57C1793.01 853.239 1781.84 855.511 1773.62 861.662C1764.72 867.136 1757.18 873.318 1753.42 875.361C1751.69 876.727 1750.34 878.76 1744.83 884.963" stroke="#CAC8EA" stroke-width="3" stroke-linecap="round"/>
<path d="M2206.95 550.189C2215.82 545.425 2225.39 533.143 2233.62 527.269C2241.84 522.134 2248.68 518.704 2253.81 517.677C2256.22 517.328 2258.25 517.328 2260.35 517.328" stroke="#CAC8EA" stroke-width="3" stroke-linecap="round"/>
<path d="M2260.35 609.755C2264.43 608.399 2272.63 604.291 2280.85 600.872C2290.74 596.763 2297.27 588.559 2308.22 582.736C2325.33 574.182 2338.37 568 2342.81 566.973C2345.21 566.624 2347.92 566.624 2352.77 564.57" stroke="#CAC8EA" stroke-width="3" stroke-linecap="round"/>
</svg>
