<svg width="1258" height="837" viewBox="0 0 1258 837" fill="none" xmlns="http://www.w3.org/2000/svg">
<svg width="1258" height="837" viewBox="0 0 1258 837" fill="none" xmlns="http://www.w3.org/2000/svg">
  <style>
    path {
      stroke: #BD93F9; /* 보라색 */
      stroke-width: 2.5;
      stroke-linecap: round;
      stroke-dasharray: 4, 18; /* 글리터 간격 */
      filter: drop-shadow(0 0 4px #A020F0); /* 네온 효과 */
      animation: glitter-flow 2.5s linear infinite;
    }
    @keyframes glitter-flow {
      from { stroke-dashoffset: 60; }
      to { stroke-dashoffset: 0; }
    }
  </style>

  <path d="M203.453 324.271C208.218..." />
  <path d="M357.49 172.289C361.577..." />
  </svg>
<path d="M203.453 324.271C208.218 322.237 224.567 314.042 236.284 306.495C244.842 300.982 255.456 297.612 263.661 291.091C274.386 282.567 283.511 278.429 293.442 274.65C302.474 271.213 310.211 266.106 320.142 262.327C330.59 258.351 341.019 251.729 349.583 248.289C359.524 244.869 367.719 238.051 373.562 229.825C374.599 227.761 375.277 225.728 375.975 223.633" stroke="#CAC8EA" stroke-width="3" stroke-linecap="round"/>
<path d="M357.49 172.289C361.577 175.698 368.417 182.517 379.692 193.474C385.504 196.237 398.464 196.935 413.868 199.307C419.105 201.679 419.105 206.424 419.105 211.312" stroke="#CAC8EA" stroke-width="3" stroke-linecap="round"/>
<path d="M209.614 137.375C208.259 137.375 205.527 138.731 202.108 141.801C195.044 148.144 195.238 178.903 201.707 198.61C205.539 210.282 219.843 209.916 231.477 213.356C241.866 216.428 254.059 222.239 262.983 224.314C272.896 226.618 283.511 229.099 328.901 228.442C345.887 228.196 351.308 216.797 355.406 216.109C364.183 214.635 373.182 227.703 384.149 234.562C395.777 241.835 404.687 245.53 412.913 247.933C417.01 248.282 421.139 249.637 425.236 252.03C427.3 253.067 429.333 253.745 431.428 254.443" stroke="#CAC8EA" stroke-width="3" stroke-linecap="round"/>
<path d="M394.459 176.399C394.438 173.688 403.989 166.828 416.651 161.365C436.122 152.964 448.475 147.686 459.802 143.548C468.728 140.287 476.571 132.611 486.163 128.493C495.07 124.669 499.184 118.214 502.942 116.17C504.668 114.805 506.023 112.771 506.721 107.318C507.42 101.865 507.42 93.0545 505.366 83.9766" stroke="#CAC8EA" stroke-width="3" stroke-linecap="round"/>
<path d="M503.312 77.8114C507.379 71.6704 525.124 60.7646 542.274 50.8035C558.599 41.321 571.048 37.4331 577.908 29.9263C587.741 19.1651 594.338 12.1299 607.627 6.62559C642.792 -7.94074 657.966 12.746 666.572 16.8639C668.124 17.6069 667.619 20.263 668.636 21.6494C673.56 28.3646 687.418 23.0562 700.09 20.6533C711.608 18.4692 720.978 10.7332 744.545 10.3738C756.319 10.1943 762.752 20.263 768.914 28.8275C776.701 39.6514 785.345 44.909 793.211 51.091C801.958 57.9652 809.292 62.7363 817.518 65.4781C826.356 68.4241 833.959 70.9516 837.04 76.0554C842.158 84.5341 836.731 94.2215 833.661 97.6411C827.109 104.938 817.569 107.921 814.827 110.991C813.591 112.375 814.797 114.739 816.162 116.803C822.595 126.524 837.348 129.814 846.272 136.664C854.053 142.637 866.101 148.956 878.435 155.836C888.091 161.223 898.963 168.139 907.886 172.616C919.495 178.441 934.576 185.268 942.802 190.413C950.792 195.41 961.276 197.591 969.501 201.37C978.003 205.276 985.922 209.914 994.147 213.354C1001.97 216.626 1010.57 216.774 1044.36 216.794C1058.65 216.803 1067.38 206.546 1081.41 201.401C1090.81 197.956 1102.95 192.169 1118.38 185.319C1127.42 181.307 1135.85 177.792 1147.15 166.855C1154.82 159.432 1154.38 137.537 1150.63 123.026C1150.05 120.79 1148.91 118.929 1146.19 117.882C1138.73 116.834 1131.13 116.156 1124.99 115.13C1121.56 114.78 1117.49 114.78 1113.3 114.78" stroke="#CAC8EA" stroke-width="3" stroke-linecap="round"/>
<path d="M833.979 215.42C845.583 207.902 860.596 199.728 872.96 192.848C883.2 187.15 893.499 186.009 901.724 182.23C903.788 181.203 905.822 179.847 907.547 178.132C909.272 176.417 910.628 174.384 912.024 172.289" stroke="#CAC8EA" stroke-width="3" stroke-linecap="round"/>
<path d="M339.006 402.314C345.147 405.723 353.342 409.831 361.567 414.616C369.802 419.407 377.988 424.865 386.891 429.003C397.749 434.05 408.097 433.121 417.021 435.165C419.141 435.65 421.118 436.531 422.843 435.863C430.459 432.917 428.676 420.839 431.079 412.275C433.804 402.564 435.536 394.14 443.032 383.87C450.11 374.175 457.389 365.386 466.313 360.909C474.675 356.713 482.733 353.72 491.297 347.569C500.888 340.68 514.896 340.042 524.159 337.967C526.562 337.289 529.273 335.934 531.686 334.558C534.099 333.182 536.133 331.826 538.228 330.43" stroke="#CAC8EA" stroke-width="3" stroke-linecap="round"/>
<path d="M388.299 537.871C392.386 535.837 401.936 527.642 410.86 524.87C421.413 521.591 436.153 516.675 453.95 506.077C469.725 496.683 479.325 492.727 487.869 489.616C501.838 484.528 509.434 477.652 517.659 473.195C527.679 467.767 534.08 461.222 544.01 454.372C552.097 448.794 560.78 442.737 566.962 435.21C568.338 433.146 569.693 431.112 571.408 428.37C573.123 425.629 575.156 422.24 577.251 414.641" stroke="#CAC8EA" stroke-width="3" stroke-linecap="round"/>
<path d="M760.041 435.18C760.041 441.3 762.752 456.334 764.488 465.956C766.008 474.387 768.256 482.377 770.639 493.324C773.754 507.638 781.237 516.594 788.086 523.813C794.04 530.088 802.432 536.475 811.356 541.619C818.969 546.008 829.132 547.442 836.69 553.932C845.207 561.245 857.187 565.228 870.558 572.078C880.397 577.118 887.337 582.357 895.563 585.099C904.861 588.198 915.393 594.68 926.021 599.466C934.596 604.272 940.758 606.325 945.194 608.03C947.597 609.057 950.308 610.413 955.155 611.809" stroke="#CAC8EA" stroke-width="3" stroke-linecap="round"/>
<path d="M26.824 350.969C23.4146 353.002 15.2404 358.486 4.95067 363.61C2.54141 364.81 1.52077 367.358 1.50023 369.422C1.47969 371.487 2.83522 373.52 4.55017 375.245C13.9204 384.671 32.9444 383.83 41.5089 386.551C53.0139 390.207 59.6442 398.864 69.5745 407.757C77.864 415.181 89.7534 419.402 98.6773 423.181C108.141 427.189 117.151 431.068 125.377 433.112C129.569 434.153 135.636 435.176 143.153 434.159C155.805 432.448 162.336 423.551 170.9 419.793C183.392 414.311 192.445 404.409 201.708 398.905C210.01 393.972 217.789 390.69 223.632 383.861C229.63 376.852 226.723 367.42 226.734 363.323C226.066 361.258 224.033 359.225 221.291 357.5C218.549 355.775 215.16 354.419 209.615 350.969" stroke="#CAC8EA" stroke-width="3" stroke-linecap="round"/>
<path d="M82.277 412.586C80.9215 424.17 77.4916 437.889 76.4646 463.685C75.5463 486.755 76.1155 530.147 76.7933 553.848C77.471 577.55 78.8266 580.261 81.5582 582.674C92.8217 592.625 102.076 598.088 112.705 601.528C121.279 604.948 128.119 608.378 133.243 609.405C135.656 609.754 137.689 609.754 139.784 609.754" stroke="#CAC8EA" stroke-width="3" stroke-linecap="round"/>
<path d="M88.4387 663.156C85.7071 665.19 84.331 673.384 86.0255 680.562C89.3812 694.779 112.304 699.386 127.071 705.588C138.754 710.496 151.368 719.267 161.997 723.046C171.102 726.283 178.766 731.59 186.992 735.369C195.493 739.275 203.412 743.913 213.681 751.101C223.11 757.701 233.521 760.344 242.784 765.488C251.885 770.543 260.919 771.311 289.601 771.332C303.972 771.342 321.097 761.781 332.814 755.938C341.466 751.623 351.288 746.706 371.446 734.404C378.049 730.374 382.794 726.168 387.24 720.366C389.397 717.552 389.654 713.886 389.325 711.123C388.996 708.361 387.641 706.328 386.604 704.264C385.567 702.2 384.889 700.166 380.083 696.018" stroke="#CAC8EA" stroke-width="3" stroke-linecap="round"/>
<path d="M454.021 574.836C466.262 583.01 489.553 595.333 499.175 599.472C507.733 603.152 517.649 604.945 524.17 611.096C530.635 617.195 551.086 632.877 564.898 642.941C573.491 649.202 584.727 658.304 590.252 669.271C590.273 672.023 588.917 674.734 586.863 676.809C584.809 678.883 582.098 680.239 577.251 681.635" stroke="#CAC8EA" stroke-width="3" stroke-linecap="round"/>
<path d="M355.438 751.47C355.438 750.792 355.438 750.115 356.454 749.765C363.945 747.193 373.881 756.235 382.107 760.014C390.918 764.062 399.882 767.901 411.856 769.605C435.301 772.943 443.711 761.78 453.303 756.964C461.966 752.614 471.068 741.94 480.69 736.765C489.742 731.896 500.52 727.522 511.149 723.076C519.789 719.461 529.274 713.844 539.902 708.36C548.948 703.693 559.383 697.413 568.666 691.591C574.499 683.036 577.251 675.499 577.59 671.402C577.929 669.337 578.607 667.304 581.359 661.102" stroke="#CAC8EA" stroke-width="3" stroke-linecap="round"/>
<path d="M451.967 591.266C453.322 595.353 460.141 600.836 466.323 607.665C472.958 614.994 479.981 624.086 488.566 628.902C495.996 633.07 503.272 637.107 511.158 639.52C519.51 642.076 524.508 648.075 528.955 651.145C532.623 653.678 532.066 661.733 531.05 669.599C523.871 676.828 517.71 680.936 513.274 682.99C510.871 683.688 508.16 683.688 505.366 683.688" stroke="#CAC8EA" stroke-width="3" stroke-linecap="round"/>
<path d="M390.352 613.864C393.063 613.864 397.17 613.864 402.295 613.186C411.27 611.999 416.312 602.239 425.236 601.202C433.461 599.487 441.656 598.131 460.11 599.128C464.269 600.822 466.302 604.211 468.397 607.702" stroke="#CAC8EA" stroke-width="3" stroke-linecap="round"/>
<path d="M392.406 597.433C397.171 594.024 406.742 589.916 414.968 585.47C424.582 580.272 444.327 573.527 457.749 568.351C466.766 564.874 474.518 559.807 483.083 556.028C493.088 551.614 501.875 543.376 511.498 539.259C521.825 534.839 529.972 526.946 538.536 523.506C548.291 519.587 558.027 513.267 570.36 505.381C579.342 499.637 587.479 495.44 595.366 492.02C604.036 488.261 608.716 478.352 615.904 471.492C623.89 463.872 627.899 455.76 630.64 446.857C633.382 435.201 636.114 429.04 638.168 424.942C638.866 422.878 638.866 420.845 638.866 418.75" stroke="#CAC8EA" stroke-width="3" stroke-linecap="round"/>
<path d="M684.049 404.367C684.049 425.439 682.694 459.78 679.613 468.005C676.332 476.766 671.069 485.781 663.88 493C656.356 500.557 645.766 510.427 639.224 522.76C636.838 527.26 636.133 531.684 635.106 535.782C634.597 537.812 634.757 539.879 636.79 541.943C647.34 552.653 660.718 552.243 671.346 554.287C680.412 556.03 689.471 563.169 700.778 567.626C713.805 572.761 720.977 577.546 728.525 579.96C739.331 583.414 751.784 593.32 760.349 599.111C769.728 605.454 777.786 613.817 791.824 626.818C799.855 634.255 805.184 639.859 813.071 643.279C815.09 644.154 816.152 646.678 816.85 648.742C818.182 652.68 816.193 656.968 813.461 661.065C806.489 671.524 790.889 676.828 781.298 680.248C771.223 683.84 762.136 691.205 753.91 697.357C745.811 703.413 732.725 711.703 721.398 718.583C712.997 723.686 699.206 731.543 688.188 737.078C680.44 740.97 671.767 742.551 663.88 747.675C655.662 753.015 653.262 761.036 650.52 764.445C643.745 772.869 660.759 784.285 669.292 790.467C677.404 796.343 684.008 802.112 694.277 805.871C706.452 810.327 715.473 817.845 725.095 823.328C734.18 828.506 741.536 832.92 745.972 834.635C756.12 838.558 766.161 826.799 776.43 817.906C785.252 810.267 796.27 808.315 805.533 801.126C814.637 794.061 825.722 792.582 839.401 785.035C850.444 778.941 861.993 773.4 872.611 768.943C890.558 761.41 901.016 753.56 909.94 747.378C912.004 746.001 914.037 744.646 915.762 742.931C917.488 741.216 918.843 739.183 924.347 732.98" stroke="#CAC8EA" stroke-width="3" stroke-linecap="round"/>
<path d="M883.271 675.478C883.271 676.834 883.271 685.665 884.627 699.344C886.214 715.357 907.178 717.212 916.102 722.357C925.57 727.816 938.684 730.234 946.909 734.68C954.639 738.859 966.041 740.503 977.368 746.654C985.487 751.063 995.493 754.181 1004.76 759.326C1017.77 766.552 1037.27 759.028 1045.49 754.91C1055.54 749.882 1066.68 743.953 1076.3 740.872C1086.65 737.558 1096.83 730.275 1107.1 723.086C1117.84 715.566 1130.35 707.683 1138.26 700.833C1144.99 695.018 1154.34 691.252 1164.27 684.064C1172.56 678.062 1178.98 673.425 1185.16 667.294C1187.9 663.197 1189.97 659.068 1191 653.954C1191.35 650.874 1191.35 646.807 1189.29 642.617" stroke="#CAC8EA" stroke-width="3" stroke-linecap="round"/>
<path d="M1133.84 593.324C1148.2 582.377 1157.75 576.935 1166.67 572.457C1176.17 567.689 1187.86 559.806 1200.89 551.252C1209.23 545.775 1216.65 539.966 1224.52 535.488C1234.24 529.954 1242.65 523.535 1249.51 515.987C1251.18 514.154 1254.28 513.923 1254.99 511.541C1258.78 498.982 1244.79 489.318 1235.88 482.438C1225.69 474.561 1216.03 474.202 1207.81 471.82C1197.6 468.862 1186.62 459.168 1178.71 452.318C1171.53 446.107 1160.58 445.448 1154.06 439.996C1147.24 434.294 1135.28 433.125 1125.65 427.334C1117.34 422.327 1107.88 418.091 1096.91 409.198C1087.31 401.409 1077.07 395.499 1069.85 388.65C1063.58 382.696 1055.83 375.659 1047.61 369.816C1040.23 364.576 1028.48 361.94 1018.86 360.564C1008.15 359.032 996.274 358.489 988.387 361.909C978.379 366.248 974.339 379.685 967.51 385.528C960.635 391.41 926.69 392.049 905.895 387.962C903.831 386.586 901.797 385.23 899.733 383.515C897.669 381.8 895.636 379.767 893.541 377.672" stroke="#CAC8EA" stroke-width="3" stroke-linecap="round"/>
<path d="M803.172 441.336C803.172 455.59 803.85 482.392 805.893 486.151C810.442 494.517 820.26 498.802 827.787 502.602C831.458 504.455 835.335 507.017 843.869 512.861C851.597 518.152 859.283 523.448 868.165 528.603C882.888 537.148 891.446 541.933 901.376 544.705C912.585 547.835 925.662 554.954 939.7 560.438C949.155 564.131 958.524 568.632 969.152 576.519C973.599 579.6 977.727 583.03 981.824 586.449C983.889 587.836 985.922 588.514 988.017 589.212" stroke="#CAC8EA" stroke-width="3" stroke-linecap="round"/>
<path d="M714.857 416.695C713.502 420.762 712.804 451.323 713.82 495.809C714.402 521.279 729.891 529.615 739.123 539.206C746.377 546.743 752.484 554.261 759.672 560.782C766.861 567.303 773.022 574.799 781.905 581.32C795.153 591.046 807.896 591.928 822.971 597.412C833.717 601.321 838.046 609.057 847.976 614.181C857.55 619.121 864.746 623.434 872.972 626.515C881.197 630.972 889.392 633.703 899.322 636.445C901.735 637.133 903.769 637.811 905.864 638.509" stroke="#CAC8EA" stroke-width="3" stroke-linecap="round"/>
<path d="M326.684 498.848C332.825 494.76 345.086 486.566 355.745 482.088C366.362 477.629 377.29 474.9 386.214 473.524C395.301 472.123 403.99 466.685 412.914 461.899C421.309 457.397 427.301 454.362 430.382 450.613C431.429 448.221 431.429 444.832 431.768 441.731C432.107 438.629 432.785 435.918 433.483 433.125" stroke="#CAC8EA" stroke-width="3" stroke-linecap="round"/>
<path d="M546.442 353.023C546.442 360.52 545.087 371.467 542.345 381.397C539.998 389.899 537.57 398.167 535.157 405.714C532.859 412.899 525.247 418.705 516.015 426.253C508.862 432.101 499.245 432.425 489.315 435.844C479.141 439.348 470.492 444.049 460.223 448.167C448.221 452.98 438.329 459.124 427.7 465.276C419.343 470.112 408.877 470.749 402.356 477.937C395.399 485.606 384.231 487.878 376.005 494.029C367.102 499.503 359.564 505.685 355.806 507.728C354.081 509.094 352.725 511.127 347.221 517.33" stroke="#CAC8EA" stroke-width="3" stroke-linecap="round"/>
<path d="M809.334 182.557C818.207 177.792 827.777 165.51 836.003 159.636C844.229 154.501 851.068 151.071 856.192 150.044C858.605 149.695 860.639 149.695 862.734 149.695" stroke="#CAC8EA" stroke-width="3" stroke-linecap="round"/>
<path d="M862.732 242.122C866.82 240.766 875.014 236.659 883.24 233.239C893.124 229.13 899.66 220.926 910.607 215.104C927.716 206.549 940.757 200.367 945.194 199.34C947.597 198.991 950.308 198.991 955.155 196.938" stroke="#CAC8EA" stroke-width="3" stroke-linecap="round"/>
</svg>
